HIERARCHY
ROOT Hips
{
	OFFSET 0.000000 8.830580 0.000000
	CHANNELS 6 Xposition Yposition Zposition Zrotation Yrotation Xrotation 
	JOINT Spine
	{
		OFFSET 0.000000 0.010000 0.000000
		CHANNELS 3 Zrotation Yrotation Xrotation
		JOINT Spine1
		{
			OFFSET 0.000000 2.459130 0.000000
			CHANNELS 3 Zrotation Yrotation Xrotation
			JOINT Neck
			{
				OFFSET 0.000000 2.484630 0.000000
				CHANNELS 3 Zrotation Yrotation Xrotation
				JOINT Head_virtual
				{
					OFFSET 0.000000 0.000000 0.000000
					CHANNELS 3 Zrotation Yrotation Xrotation
					JOINT Head
					{
						OFFSET 0.000000 0.927525 0.000000
						CHANNELS 3 Zrotation Yrotation Xrotation
						End Site
						{
							OFFSET 0.000000 0.000000 0.000000
						}
					}
				}
				JOINT LeftUpArm_virtual
				{
					OFFSET 0.000000 0.000000 0.000000
					CHANNELS 3 Zrotation Yrotation Xrotation
					JOINT LeftUpArm
					{
						OFFSET 1.248820 0.000000 0.000000
						CHANNELS 3 Zrotation Yrotation Xrotation
						JOINT LeftForeArm
						{
							OFFSET 2.597580 0.000000 0.000000
							CHANNELS 3 Zrotation Yrotation Xrotation
							JOINT LeftHand
							{
								OFFSET 2.455420 0.000000 0.000000
								CHANNELS 3 Zrotation Yrotation Xrotation
								End Site
								{
									OFFSET 0.000000 0.000000 0.000000
								}
							}
						}
					}
				}
				JOINT RightUpArm_virtual
				{
					OFFSET -0.000000 -0.000000 -0.000000
					CHANNELS 3 Zrotation Yrotation Xrotation
					JOINT RightUpArm
					{
						OFFSET -1.248820 -0.000000 -0.000000
						CHANNELS 3 Zrotation Yrotation Xrotation
						JOINT RightForeArm
						{
							OFFSET -2.597580 -0.000000 -0.000000
							CHANNELS 3 Zrotation Yrotation Xrotation
							JOINT RightHand
							{
								OFFSET -2.455420 -0.000000 -0.000000
								CHANNELS 3 Zrotation Yrotation Xrotation
								End Site
								{
									OFFSET 0.000000 0.000000 0.000000
								}
							}
						}
					}
				}
			}
		}
	}
	JOINT LeftUpLeg
	{
		OFFSET 1.271939 0.000000 0.000000
		CHANNELS 3 Zrotation Yrotation Xrotation
		JOINT LeftLowLeg
		{
			OFFSET 0.000000 -4.342910 0.000000
			CHANNELS 3 Zrotation Yrotation Xrotation
			JOINT LeftFoot
			{
				OFFSET 0.000000 -4.487670 0.000000
				CHANNELS 3 Zrotation Yrotation Xrotation
				JOINT LeftToeBase
				{
					OFFSET 0.000000 0.000000 1.515070
					CHANNELS 3 Zrotation Yrotation Xrotation
					End Site
					{
						OFFSET 0.000000 0.000000 0.000000
					}
				}
			}
		}
	}
	JOINT RightUpLeg
	{
		OFFSET -1.271939 0.000000 0.000000
		CHANNELS 3 Zrotation Yrotation Xrotation
		JOINT RightLowLeg
		{
			OFFSET 0.000000 -4.342910 0.000000
			CHANNELS 3 Zrotation Yrotation Xrotation
			JOINT RightFoot
			{
				OFFSET 0.000000 -4.487670 0.000000
				CHANNELS 3 Zrotation Yrotation Xrotation
				JOINT RightToeBase
				{
					OFFSET 0.000000 0.000000 1.515070
					CHANNELS 3 Zrotation Yrotation Xrotation
					End Site
					{
						OFFSET 0.000000 0.000000 0.000000
					}
				}
			}
		}
	}
}
MOTION
Frames: 17
Frame Time: 0.041667
-23.095203 9.065359 45.071590 -169.813864 -14.542889 -176.946505 2.995610 2.074441 -6.129912 11.372205 4.657066 -1.502211 0.000000 0.000000 0.000000 -37.757572 30.925056 8.388630 9.243931 2.402786 -96.624528 -18.891300 7.438200 -9.481930 24.119301 -24.488100 -25.380199 0.000000 -16.408199 0.000000 42.039398 4.638400 28.542601 23.889099 -4.990650 12.428800 33.748100 -3.935940 20.011200 180.000000 84.496101 180.000000 -52.533199 -17.782801 -6.565770 1.287300 7.594242 -4.697827 0.000000 0.000000 7.297920 -12.996309 15.586426 -2.843135 0.000000 0.000000 -29.004100 -2.184761 -5.059855 -5.669767 0.000000 0.000000 20.296101 21.860338 -17.287061 17.269449 0.000000 0.000000 -38.027700 
-23.099799 9.065404 45.064628 -169.763161 -15.026326 -176.930103 2.957107 1.936883 -6.210863 11.464455 4.523373 -1.501518 0.000000 0.000000 0.000000 -37.459845 30.868001 8.691057 9.243748 2.628577 -96.541780 -18.875700 7.522280 -9.551310 24.170099 -24.493999 -25.545401 0.000000 -16.506901 0.000000 41.819099 4.464000 28.505600 23.998699 -5.017390 12.323600 33.469200 -3.863480 20.281000 180.000000 84.382500 180.000000 -52.419998 -17.863899 -6.747630 1.331715 7.281824 -4.745389 0.000000 0.000000 7.273640 -13.029387 15.448087 -2.818400 0.000000 0.000000 -28.966100 -2.112198 -4.997424 -5.474926 0.000000 0.000000 20.125900 22.066259 -17.608813 17.127574 0.000000 0.000000 -38.003401 
-23.103382 9.065772 45.059015 -169.713576 -15.461284 -176.907170 2.900051 1.851462 -6.279571 11.549233 4.446310 -1.505843 0.000000 0.000000 0.000000 -37.058776 30.755358 9.026890 9.212226 2.903945 -96.493701 -18.895901 7.634920 -9.519260 24.317101 -24.567801 -26.108900 0.000000 -16.630899 0.000000 41.515800 4.191160 28.948601 24.059099 -5.013360 12.271000 33.379002 -3.796530 20.266701 180.000000 84.440002 180.000000 -52.707901 -17.245199 -5.922420 1.376195 7.024443 -4.822683 0.000000 0.000000 7.291430 -13.058876 15.315603 -2.788091 0.000000 0.000000 -29.028000 -2.043709 -4.895700 -5.346733 0.000000 0.000000 20.031300 22.308350 -17.889644 17.005137 0.000000 0.000000 -38.019400 
-23.107561 9.066100 45.053199 -169.670077 -15.851244 -176.922822 2.880991 1.812974 -6.316515 11.557935 4.407095 -1.480157 0.000000 0.000000 0.000000 -36.560901 30.566455 9.378684 9.203837 3.187027 -96.433328 -18.949100 7.724590 -9.314850 24.650400 -24.592699 -26.738701 0.000000 -16.762800 0.000000 41.426399 3.711630 29.056499 24.104200 -5.020890 12.292800 33.420799 -3.763110 20.172701 180.000000 84.440399 180.000000 -53.014999 -17.116600 -5.791550 1.411146 6.839309 -4.848896 0.000000 0.000000 7.304530 -13.080040 15.164290 -2.760906 0.000000 0.000000 -28.977100 -1.993577 -4.801702 -5.218054 0.000000 0.000000 19.975300 22.456691 -18.164032 16.970115 0.000000 0.000000 -38.206400 
-23.111193 9.066508 45.048746 -169.643090 -16.229521 -176.918186 2.856048 1.819161 -6.346342 11.562982 4.409631 -1.420215 0.000000 0.000000 0.000000 -36.136763 30.361802 9.645457 9.290950 3.393217 -96.443036 -18.942101 7.722250 -9.649180 24.649200 -24.746901 -26.676800 0.000000 -17.000799 0.000000 41.488098 3.628640 29.527800 24.152100 -5.091830 12.208500 33.518398 -3.771860 20.048599 180.000000 84.413803 180.000000 -53.317799 -17.080400 -5.661750 1.423872 6.820822 -4.926060 0.000000 0.000000 7.367930 -13.055927 14.872904 -2.691535 0.000000 0.000000 -28.956500 -1.973885 -4.877223 -5.164862 0.000000 0.000000 20.041300 22.661233 -18.239442 16.905783 0.000000 0.000000 -38.079300 
-23.115454 9.066695 45.044826 -169.613049 -16.569999 -176.926153 2.854021 1.848882 -6.350740 11.578467 4.426544 -1.317872 0.000000 0.000000 0.000000 -35.829740 30.147866 9.828288 9.403262 3.498235 -96.533605 -18.934299 7.625100 -9.856350 24.660900 -24.689600 -26.600700 0.000000 -17.257000 0.000000 41.693501 3.550620 29.225700 24.150200 -5.211000 12.120700 33.696400 -3.758880 19.834999 180.000000 84.402397 180.000000 -53.305599 -17.085400 -5.763390 1.433986 6.711785 -4.974618 0.000000 0.000000 7.403100 -13.033691 14.710553 -2.648473 0.000000 0.000000 -28.975100 -1.971316 -5.075886 -5.128425 0.000000 0.000000 20.126699 22.793386 -18.236959 16.942837 0.000000 0.000000 -38.077000 
-23.118776 9.066837 45.042647 -169.578586 -16.813434 -176.949022 2.848295 1.908621 -6.300340 11.630555 4.476518 -1.232922 0.000000 0.000000 0.000000 -35.584167 29.950967 9.968768 9.470925 3.549366 -96.546948 -18.944799 7.656560 -9.864970 24.773100 -24.712999 -26.618401 0.000000 -17.328899 0.000000 41.850800 3.586670 28.877001 24.164801 -5.243710 12.137700 33.870300 -3.781490 19.474600 180.000000 84.288498 180.000000 -53.139900 -17.439199 -5.836770 1.445719 6.772855 -5.011219 0.000000 0.000000 7.449840 -12.996849 14.489549 -2.604391 0.000000 0.000000 -28.981700 -1.973192 -5.197955 -5.158902 0.000000 0.000000 20.290701 22.938469 -18.220492 17.033871 0.000000 0.000000 -38.261400 
-23.122303 9.066742 45.039220 -169.528138 -17.104706 -177.017669 2.838446 1.948516 -6.247937 11.735705 4.499978 -1.097203 0.000000 0.000000 0.000000 -35.319774 29.698114 10.100306 9.408723 3.557194 -96.474972 -18.995199 7.639090 -9.719060 24.996799 -24.639200 -26.393900 0.000000 -17.316500 0.000000 41.927101 3.576510 29.369900 24.166700 -5.323460 12.187200 34.029900 -3.742400 19.136299 180.000000 84.251801 180.000000 -53.086201 -17.563601 -5.913150 1.482335 6.785754 -5.016349 0.000000 0.000000 7.518920 -12.964201 14.258747 -2.587050 0.000000 0.000000 -28.971200 -1.969575 -5.486758 -5.102128 0.000000 0.000000 20.409401 22.989005 -18.097224 17.150295 0.000000 0.000000 -38.343599 
-23.125531 9.066837 45.036924 -169.484115 -17.332704 -177.036598 2.861807 1.987550 -6.211962 11.796671 4.521187 -0.991032 0.000000 0.000000 0.000000 -35.141590 29.526954 10.217286 9.461816 3.572620 -96.476101 -19.047001 7.676980 -9.681110 25.165501 -24.620300 -25.937201 0.000000 -17.303400 0.000000 42.205200 3.714000 29.499001 24.171600 -5.367920 12.206600 34.163601 -3.693460 18.994301 -180.000000 84.278999 -180.000000 -53.203201 -17.629999 -6.008220 1.508331 6.727842 -5.070577 0.000000 0.000000 7.593300 -12.953616 14.138503 -2.582479 0.000000 0.000000 -28.996300 -1.961413 -5.625816 -5.129402 0.000000 0.000000 20.562700 23.056495 -18.058197 17.241969 0.000000 0.000000 -38.380600 
-23.128888 9.066982 45.033715 -169.451882 -17.534285 -177.046122 2.880509 2.005728 -6.195040 11.813087 4.524284 -0.900179 0.000000 0.000000 0.000000 -34.959175 29.447445 10.290771 9.523253 3.669171 -96.509968 -19.073099 7.724200 -9.651900 25.377100 -24.647900 -25.325199 0.000000 -16.673201 0.000000 42.525902 2.490380 28.783199 24.231001 -5.349390 12.247600 34.222099 -3.660760 18.834700 -180.000000 84.364403 -180.000000 -53.200298 -17.480700 -5.881920 1.523261 6.651181 -5.122356 0.000000 0.000000 7.669910 -12.941074 14.063825 -2.586685 0.000000 0.000000 -29.013700 -1.962915 -5.769111 -5.152598 0.000000 0.000000 20.690599 23.145472 -18.017670 17.342429 0.000000 0.000000 -38.469900 
-23.131824 9.067116 45.031286 -169.422961 -17.692446 -177.060603 2.908188 2.018989 -6.174628 11.823003 4.519949 -0.801879 0.000000 0.000000 0.000000 -34.783041 29.410419 10.398068 9.569337 3.810686 -96.565657 -19.069700 7.841180 -9.728570 25.310801 -24.746799 -25.517099 0.000000 -16.636700 0.000000 42.652802 2.589170 28.722700 24.320499 -5.267420 12.413400 34.223202 -3.607290 18.655500 180.000000 84.416901 180.000000 -53.063202 -17.643700 -6.275250 1.536682 6.576413 -5.163215 0.000000 0.000000 7.744160 -12.933277 14.030464 -2.604655 0.000000 0.000000 -29.021000 -1.963126 -5.886723 -5.195815 0.000000 0.000000 20.836100 23.172474 -17.989011 17.449661 0.000000 0.000000 -38.488899 
-23.134239 9.067378 45.028351 -169.388198 -17.834182 -177.081542 2.925797 2.029444 -6.133902 11.846765 4.519810 -0.744028 0.000000 0.000000 0.000000 -34.566749 29.349868 10.537198 9.589982 3.964502 -96.580664 -19.082199 7.930220 -9.822330 25.185801 -24.865101 -25.862400 0.000000 -16.594101 0.000000 42.863300 2.554880 29.223200 24.378700 -5.164430 12.644800 34.234699 -3.533010 18.535101 -180.000000 84.447998 -180.000000 -53.283199 -17.698900 -5.962730 1.561292 6.539955 -5.183875 0.000000 0.000000 7.800020 -12.921244 13.959610 -2.615806 0.000000 0.000000 -29.025400 -1.949609 -5.941816 -5.235526 0.000000 0.000000 20.982100 23.187085 -17.996122 17.538186 0.000000 0.000000 -38.559500 
-23.137866 9.067477 45.023894 -169.356697 -17.986524 -177.094160 2.944337 2.010052 -6.140173 11.877200 4.482614 -0.637163 0.000000 0.000000 0.000000 -34.391923 29.318085 10.642764 9.580834 4.098028 -96.565704 -19.100901 8.023930 -9.790930 25.090401 -24.881300 -26.407101 0.000000 -16.540199 0.000000 42.978901 2.371040 30.060600 24.416401 -5.108920 12.724700 34.202499 -3.482260 18.522301 -180.000000 84.469803 -180.000000 -53.090000 -17.793800 -6.154150 1.576337 6.499492 -5.191165 0.000000 0.000000 7.832150 -12.879109 13.902645 -2.617429 0.000000 0.000000 -29.016600 -1.941078 -6.003884 -5.248851 0.000000 0.000000 21.103600 23.196006 -17.992260 17.604514 0.000000 0.000000 -38.518400 
-23.141079 9.066905 45.020737 -169.359612 -18.062701 -177.089086 2.938270 2.031395 -6.117649 11.895781 4.493444 -0.550358 0.000000 0.000000 0.000000 -34.232981 29.292292 10.687764 9.587933 4.201160 -96.511215 -19.099400 8.033370 -9.817440 24.969101 -24.848900 -26.580500 0.000000 -16.407600 0.000000 43.096600 2.460230 30.339001 24.436701 -5.091490 12.783800 34.169998 -3.401870 18.663799 -180.000000 84.471802 -180.000000 -53.296101 -17.717400 -6.003810 1.559740 6.458510 -5.196680 0.000000 0.000000 7.858380 -12.851851 13.902151 -2.635554 0.000000 0.000000 -29.032600 -1.960632 -5.963169 -5.305510 0.000000 0.000000 21.271400 23.274229 -18.006891 17.570396 0.000000 0.000000 -38.422899 
-23.144496 9.065704 45.017885 -169.373984 -18.153425 -177.074828 2.936926 2.041110 -6.080823 11.889834 4.494630 -0.484459 0.000000 0.000000 0.000000 -34.059742 29.224554 10.740855 9.574137 4.289135 -96.478612 -19.101000 8.023030 -9.937500 24.808201 -24.835501 -26.523600 0.000000 -16.318399 0.000000 43.056099 2.705070 30.234699 24.467699 -5.116150 12.781100 34.112400 -3.369590 18.773899 180.000000 84.422096 180.000000 -53.115398 -17.758101 -5.927570 1.531827 6.406654 -5.219878 0.000000 0.000000 7.904270 -12.859321 13.862068 -2.674549 0.000000 0.000000 -29.067400 -1.978786 -5.946766 -5.351261 0.000000 0.000000 21.395700 23.382045 -18.088951 17.511013 0.000000 0.000000 -38.464800 
-23.147202 9.064675 45.013183 -169.379612 -18.207262 -177.073632 2.927726 2.046561 -6.083045 11.873029 4.481693 -0.336192 0.000000 0.000000 0.000000 -33.884015 29.184243 10.726051 9.550987 4.387581 -96.441474 -19.070299 7.997810 -10.152300 24.525999 -24.771299 -26.615801 0.000000 -16.365999 0.000000 42.862202 2.934070 30.017300 24.524300 -5.149140 12.760700 34.034500 -3.294610 19.054199 -180.000000 84.443298 180.000000 -53.350399 -17.424700 -5.968010 1.517370 6.435740 -5.195863 0.000000 0.000000 7.903160 -12.830475 13.802732 -2.692301 0.000000 0.000000 -29.051700 -1.979021 -5.932964 -5.355480 0.000000 0.000000 21.464600 23.360249 -18.176473 17.475988 0.000000 0.000000 -38.505301 
-23.149189 9.063407 45.010885 -169.394156 -18.240180 -177.084154 2.883783 2.075905 -5.973775 11.888069 4.512402 -0.291463 0.000000 0.000000 0.000000 -33.672823 29.099104 10.731258 9.512953 4.492158 -96.445093 -19.022301 7.993860 -10.237800 24.189699 -24.711599 -26.849400 0.000000 -16.427401 0.000000 42.772598 2.795560 29.396400 24.593000 -5.187580 12.761500 33.933601 -3.290990 19.216600 180.000000 84.355797 180.000000 -53.459499 -17.565300 -6.259380 1.495031 6.478167 -5.189234 0.000000 0.000000 7.946870 -12.821970 13.751441 -2.723522 0.000000 0.000000 -29.105100 -1.980900 -5.877986 -5.374722 0.000000 0.000000 21.551600 23.303901 -18.283333 17.427068 0.000000 0.000000 -38.539700 
